{"title":"Sex and the Church - Sexual Revolution 2015 S01E02 x264.mp4","uid":11822420,"size":659922811,"categoryP":"video","categoryS":"tv_shows","magnet":"?xt=urn:btih:e0c90089ea3efad879c1e797355a6fcadf40b89a&amp;dn=Sex+and+the+Church+-+Sexual+Revolution+2015+S01E02+x264.mp4&amp;tr=udp%3A%2F%2Ftracker.openbittorrent.com%3A80&amp;tr=udp%3A%2F%2Fopen.demonii.com%3A1337&amp;tr=udp%3A%2F%2Ftracker.coppersurfer.tk%3A6969&amp;tr=udp%3A%2F%2Fexodus.desync.com%3A6969","seeders":2,"leechers":0,"uploader":"akula941","files":1,"time":1429317075,"description":"Diarmaid MacCulloch travels to Germany and Italy where he takes a look at how the Christian Church took control of marriage in the 11th century. He also takes a look at how the Protestant Reformation launched a sexual revolution.\n\n\nFormat : MPEG-4\nFormat profile : Base Media\nCodec ID : isom\nFile size : 629 MiB\nDuration : 58mn 33s\nOverall bit rate mode : Constant\nOverall bit rate : 1 503 Kbps\nWriting application : Lavf54.63.104\n\nVideo\nID : 1\nFormat : AVC\nFormat/Info : Advanced Video Codec\nFormat profile : &lt;a class=&quot;__cf_email__&quot; href=&quot;/cdn-cgi/l/email-protection&quot; data-cfemail=&quot;216c40484f616d120f10&quot;&gt;[email&amp;#160;protected]&lt;/a&gt;&lt;script cf-hash='f9e31' type=&quot;text/javascript&quot;&gt;\n/* &lt;![CDATA[ */!function(){try{var t=&quot;currentScript&quot;in document?document.currentScript:function(){for(var t=document.getElementsByTagName(&quot;script&quot;),e=t.length;e--;)if(t[e].getAttribute(&quot;cf-hash&quot;))return t[e]}();if(t&amp;&amp;t.previousSibling){var e,r,n,i,c=t.previousSibling,a=c.getAttribute(&quot;data-cfemail&quot;);if(a){for(e=&quot;&quot;,r=parseInt(a.substr(0,2),16),n=2;a.length-n;n+=2)i=parseInt(a.substr(n,2),16)^r,e+=String.fromCharCode(i);e=document.createTextNode(e),c.parentNode.replaceChild(e,c)}}}catch(u){}}();/* ]]&gt; */&lt;/script&gt;\nFormat settings, CABAC : Yes\nFormat settings, ReFrames : 2 frames\nCodec ID : avc1\nCodec ID/Info : Advanced Video Coding\nDuration : 58mn 33s\nBit rate mode : Constant\nBit rate : 1 404 Kbps\nWidth : 832 pixels\nHeight : 468 pixels\nDisplay aspect ratio : 16:9\nFrame rate mode : Constant\nFrame rate : 25.000 fps\nColor space : YUV\nChroma subsampling : 4:2:0\nBit depth : 8 bits\nScan type : Progressive\nBits/(Pixel*Frame) : 0.144\nStream size : 588 MiB (93%)\n\nAudio\nID : 2\nFormat : AAC\nFormat/Info : Advanced Audio Codec\nFormat profile : LC\nCodec ID : 40\nDuration : 58mn 32s\nBit rate mode : Constant\nBit rate : 93.5 Kbps\nChannel(s) : 2 channels\nChannel positions : Front: L R\nSampling rate : 48.0 KHz\nCompression mode : Lossy\nStream size : 39.1 MiB (6%)","torrent":{"xt":"urn:btih:e0c90089ea3efad879c1e797355a6fcadf40b89a","amp;dn":"Sex+and+the+Church+-+Sexual+Revolution+2015+S01E02+x264.mp4","amp;tr":["udp%3A%2F%2Ftracker.openbittorrent.com%3A80","udp%3A%2F%2Fopen.demonii.com%3A1337","udp%3A%2F%2Ftracker.coppersurfer.tk%3A6969","udp%3A%2F%2Fexodus.desync.com%3A6969"],"infoHash":"e0c90089ea3efad879c1e797355a6fcadf40b89a","infoHashBuffer":{"type":"Buffer","data":[224,201,0,137,234,62,250,216,121,193,231,151,53,90,111,202,223,64,184,154]},"announce":[],"urlList":[]}}